<?xml version="1.0" standalone="no"?>
<!DOCTYPE svg PUBLIC "-//W3C//DTD SVG 20010904//EN"
 "http://www.w3.org/TR/2001/REC-SVG-20010904/DTD/svg10.dtd">
<svg version="1.0" xmlns="http://www.w3.org/2000/svg"
 width="57.000000pt" height="57.000000pt" viewBox="0 0 57.000000 57.000000"
 preserveAspectRatio="xMidYMid meet">

<g transform="translate(0.000000,57.000000) scale(0.100000,-0.100000)"
fill="#000000" stroke="none">
<path d="M258 505 l-3 -60 -92 -3 -93 -3 0 -147 0 -148 58 -57 c32 -32 61 -54
65 -51 4 4 7 70 7 146 l0 138 90 0 90 0 0 -93 0 -93 53 -52 c29 -29 56 -52 60
-52 4 0 7 66 7 147 l0 146 -119 121 -120 121 -3 -60z"/>
</g>
</svg>
